<?xml version="1.0" encoding="UTF-8"?>
<svg xmlns="http://www.w3.org/2000/svg" xmlns:xlink="http://www.w3.org/1999/xlink" width="15pt" height="15pt" viewBox="0 0 15 15" version="1.1">
<g id="surface1">
<path style=" stroke:none;fill-rule:nonzero;fill:rgb(100%,100%,100%);fill-opacity:1;" d="M 14.324219 10.417969 L 11.097656 9.035156 C 10.816406 8.914062 10.484375 8.996094 10.292969 9.234375 L 8.863281 10.980469 C 6.621094 9.921875 4.816406 8.117188 3.761719 5.878906 L 5.503906 4.449219 C 5.742188 4.253906 5.828125 3.925781 5.703125 3.640625 L 4.320312 0.417969 C 4.191406 0.113281 3.855469 -0.0585938 3.53125 0.0195312 L 0.535156 0.710938 C 0.222656 0.78125 0 1.058594 0 1.382812 C 0 8.769531 5.984375 14.742188 13.359375 14.742188 C 13.683594 14.742188 13.960938 14.519531 14.035156 14.207031 L 14.722656 11.210938 C 14.796875 10.886719 14.628906 10.550781 14.324219 10.417969 Z M 14.324219 10.417969 "/>
</g>
</svg>
